<?xml version="1.0" encoding="UTF-8" standalone="no"?>
<svg
   xmlns:dc="http://purl.org/dc/elements/1.1/"
   xmlns:cc="http://creativecommons.org/ns#"
   xmlns:rdf="http://www.w3.org/1999/02/22-rdf-syntax-ns#"
   xmlns:svg="http://www.w3.org/2000/svg"
   xmlns="http://www.w3.org/2000/svg"
   viewBox="0 0 666.66669 253.33333"
   height="253.33333"
   width="666.66669"
   xml:space="preserve"
   id="svg2"
   version="1.1"><metadata
     id="metadata8"><rdf:RDF><cc:Work
         rdf:about=""><dc:format>image/svg+xml</dc:format><dc:type
           rdf:resource="http://purl.org/dc/dcmitype/StillImage" /></cc:Work></rdf:RDF></metadata><defs
     id="defs6"><clipPath
       id="clipPath50"
       clipPathUnits="userSpaceOnUse"><path
         id="path48"
         d="M 0,190 H 500 V 0 H 0 Z" /></clipPath><clipPath
       id="clipPath82"
       clipPathUnits="userSpaceOnUse"><path
         id="path80"
         d="m 326.119,176.388 -0.002,-0.002 V 34.99 v 0 l 25.788,25.787 v 89.821 h 89.819 l 25.791,25.789 -10e-4,0.001 z" /></clipPath><linearGradient
       id="linearGradient98"
       spreadMethod="pad"
       gradientTransform="matrix(91.74736,-86.743042,86.743042,91.74736,323.02637,175.2832)"
       gradientUnits="userSpaceOnUse"
       y2="0"
       x2="1"
       y1="0"
       x1="0"><stop
         id="stop88"
         offset="0"
         style="stop-opacity:1;stop-color:#7e8a91" /><stop
         id="stop90"
         offset="0.00650785"
         style="stop-opacity:1;stop-color:#7e8a91" /><stop
         id="stop92"
         offset="0.586014"
         style="stop-opacity:1;stop-color:#526365" /><stop
         id="stop94"
         offset="0.9943124"
         style="stop-opacity:1;stop-color:#314046" /><stop
         id="stop96"
         offset="1"
         style="stop-opacity:1;stop-color:#314046" /></linearGradient><clipPath
       id="clipPath108"
       clipPathUnits="userSpaceOnUse"><path
         id="path106"
         d="M 463.213,129.109 V 39.29 H 373.395 L 347.61,13.501 H 489 v 141.397 0 z" /></clipPath><linearGradient
       id="linearGradient122"
       spreadMethod="pad"
       gradientTransform="matrix(86.763825,-93.437958,93.437973,86.763825,405.62695,97.801758)"
       gradientUnits="userSpaceOnUse"
       y2="0"
       x2="1"
       y1="0"
       x1="0"><stop
         id="stop114"
         offset="0"
         style="stop-opacity:1;stop-color:#158393" /><stop
         id="stop116"
         offset="0.00287608"
         style="stop-opacity:1;stop-color:#158393" /><stop
         id="stop118"
         offset="0.994629"
         style="stop-opacity:1;stop-color:#78c8da" /><stop
         id="stop120"
         offset="1"
         style="stop-opacity:1;stop-color:#78c8da" /></linearGradient><clipPath
       id="clipPath132"
       clipPathUnits="userSpaceOnUse"><path
         id="path130"
         d="M 0,190 H 500 V 0 H 0 Z" /></clipPath></defs><g
     transform="matrix(1.3333333,0,0,-1.3333333,0,253.33333)"
     id="g10"><g
       transform="translate(47.9092,17.6113)"
       id="g12"><path
         id="path14"
         style="fill:#44535b;fill-opacity:1;fill-rule:nonzero;stroke:none"
         d="M 0,0 -32.733,47.325 V 0 h -2.16 V 51.86 L -33.101,51.729 -0.166,4.132 V 51.747 H 1.922 L 1.922,0 Z" /></g><g
       transform="translate(12.5166,70.0107)"
       id="g16"><path
         id="path18"
         style="fill:#44535b;fill-opacity:1;fill-rule:nonzero;stroke:none"
         d="m 0,0 v -1.077 -50.822 -1 h 1 1.16 1 v 1 45.222 l 31.673,-45.791 0.297,-0.431 h 0.525 1.16 1 v 1 50.747 1 h -1 -1.088 -1 v -1 -45.515 L 2.839,-0.583 2.567,-0.19 2.09,-0.155 1.074,-0.08 Z m 1,-1.077 1.017,-0.075 33.71,-48.717 v 48.717 h 1.088 v -50.747 h -1.16 L 2.16,-3.473 V -51.899 H 1 Z" /></g><g
       transform="translate(55.6489,17.6113)"
       id="g20"><path
         id="path22"
         style="fill:#44535b;fill-opacity:1;fill-rule:nonzero;stroke:none"
         d="M 0,0 V 51.675 H 28.984 V 49.587 H 2.159 V 26.954 H 28.403 V 24.795 H 2.159 V 2.088 h 26.968 l 0,-2.088 z" /></g><g
       transform="translate(85.1328,69.7861)"
       id="g24"><path
         id="path26"
         style="fill:#44535b;fill-opacity:1;fill-rule:nonzero;stroke:none"
         d="m 0,0 h -1 -27.984 -1 v -1 -50.675 -1 h 1 0.147 27.98 1 v 1 1.088 1 h -1 -25.968 v 21.707 h 25.244 1 v 1 1.159 1 h -1 -25.244 V -3.088 H -1 0 v 1 L 0,-1 Z m -1,-1 v -1.088 h -26.825 v -23.633 h 26.244 v -1.159 h -26.244 v -23.707 h 26.968 v -1.088 h -27.98 -0.147 V -1 Z" /></g><g
       transform="translate(129.0933,17.1064)"
       id="g28"><path
         id="path30"
         style="fill:#44535b;fill-opacity:1;fill-rule:nonzero;stroke:none"
         d="M 0,0 -12.188,34.446 -24.305,0 h -1.731 L -43.33,52.18 h 2.214 L -25.15,3.93 -13.342,37.391 h 2.305 L 0.754,3.976 15.665,52.252 h 2.204 L 1.737,0 Z" /></g><g
       transform="translate(147.6401,69.8584)"
       id="g32"><path
         id="path34"
         style="fill:#44535b;fill-opacity:1;fill-rule:nonzero;stroke:none"
         d="m 0,0 h -1.355 -1.159 -0.737 l -0.218,-0.705 -14.355,-46.479 -11.171,31.656 -0.235,0.667 h -0.708 -1.597 -0.707 l -0.236,-0.667 -11.204,-31.749 -15.393,46.519 -0.227,0.686 h -0.722 -1.161 -1.384 l 0.435,-1.315 16.963,-51.179 0.227,-0.686 h 0.722 1.016 0.708 l 0.235,0.668 11.53,32.775 11.597,-32.777 0.236,-0.666 h 0.707 1.014 0.738 l 0.217,0.705 15.824,51.252 z m -1.355,-1 -15.824,-51.252 h -1.014 l -12.543,35.449 -12.47,-35.449 h -1.016 l -16.963,51.18 h 1.161 l 16.312,-49.296 12.177,34.507 h 1.597 L -17.761,-50.368 -2.514,-1 Z" /></g><g
       transform="translate(161.2827,17.3955)"
       id="g36"><path
         id="path38"
         style="fill:#44535b;fill-opacity:1;fill-rule:nonzero;stroke:none"
         d="m 0,0 v 44.149 h -15.369 v 7.814 H 23.62 V 44.149 H 8.324 L 8.324,0 Z" /></g><g
       transform="translate(185.4028,69.8584)"
       id="g40"><path
         id="path42"
         style="fill:#44535b;fill-opacity:1;fill-rule:nonzero;stroke:none"
         d="m 0,0 h -1 -37.989 -1 v -1 -6.813 -1 h 1 14.369 v -43.15 -1 h 1 7.324 1 v 1 43.15 H -1 0 v 1 V -1 Z m -1,-1 v -6.813 h -15.296 v -44.15 h -7.324 v 44.15 H -38.989 V -1 Z" /></g><g
       id="g44"><g
         clip-path="url(#clipPath50)"
         id="g46"><g
           transform="translate(205.3062,40.4355)"
           id="g52"><path
             id="path54"
             style="fill:#44535b;fill-opacity:1;fill-rule:nonzero;stroke:none"
             d="M 0,0 -5.538,15.899 -11.204,0 Z M 9.285,-22.824 3.196,-7.889 h -17.53 c -2.769,-6.567 -4.717,-11.348 -5.954,-14.612 l -0.122,-0.323 h -8.982 l 20.766,52.401 h 6.045 l 20.768,-52.401 z" /></g><g
           transform="translate(194.8115,40.9355)"
           id="g56"><path
             id="path58"
             style="fill:#44535b;fill-opacity:1;fill-rule:nonzero;stroke:none"
             d="M 0,0 4.951,13.895 9.791,0 Z M 8.253,29.577 H 7.574 2.208 1.529 l -0.25,-0.632 -20.37,-51.401 -0.543,-1.368 h 1.472 7.901 0.691 l 0.244,0.645 c 1.215,3.207 3.12,7.886 5.819,14.29 h 16.861 l 5.836,-14.313 0.253,-0.622 h 0.673 7.83 1.472 L 28.875,-22.456 8.503,28.945 Z M -1.418,-1 H 11.198 L 4.962,16.904 -1.418,-1 m 8.992,29.577 20.372,-51.401 h -7.83 l -6.09,14.935 H -4.171 c -1.958,-4.639 -4.496,-10.729 -6.09,-14.935 h -7.901 l 20.37,51.401 h 5.366" /></g><g
           transform="translate(246.8291,17.25)"
           id="g60"><path
             id="path62"
             style="fill:#44535b;fill-opacity:1;fill-rule:nonzero;stroke:none"
             d="m 0,0 c -14.741,0 -25.44,11.004 -25.44,26.165 0,14.955 10.937,26.232 25.44,26.232 9.63,0 21.858,-4.946 24.629,-18.885 l 0.119,-0.598 h -8.829 l -0.094,0.38 C 13.854,41.243 6.358,44.076 0,44.076 c -9.759,0 -17.118,-7.7 -17.118,-17.911 C -17.118,15.826 -9.759,8.03 0,8.03 c 6.855,0 12.476,3.46 15.185,9.297 H -3.33 v 8.321 H 25.046 L 25,25.106 C 24.638,20.842 23.62,16.381 23.61,16.336 20.269,6.999 10.126,0 0,0" /></g><g
           transform="translate(246.8291,70.1475)"
           id="g64"><path
             id="path66"
             style="fill:#44535b;fill-opacity:1;fill-rule:nonzero;stroke:none"
             d="m 0,0 c -14.789,0 -25.94,-11.492 -25.94,-26.732 0,-7.453 2.637,-14.247 7.427,-19.134 4.761,-4.857 11.335,-7.531 18.513,-7.531 10.327,0 20.672,7.141 24.064,16.611 l 0.021,0.056 0.013,0.057 c 0.042,0.184 1.036,4.54 1.401,8.839 l 0.092,1.085 h -1.089 -27.332 -1 v -1 -7.321 -1 h 1 17.21 C 11.639,-41.295 6.369,-44.367 0,-44.367 c -9.474,0 -16.618,7.581 -16.618,17.635 0,9.925 7.144,17.411 16.618,17.411 6.169,0 13.438,-2.733 15.34,-10.403 l 0.188,-0.759 h 0.783 7.828 1.217 l -0.236,1.195 C 22.289,-5.052 9.819,0 0,0 m 0,-1 c 9.712,0 21.458,-5 24.139,-18.483 H 16.311 C 14.28,-11.292 6.451,-8.321 0,-8.321 c -9.933,0 -17.618,-7.757 -17.618,-18.411 0,-10.73 7.685,-18.635 17.618,-18.635 6.232,0 12.902,2.9 15.948,10.297 H -2.83 v 7.321 h 27.332 c -0.363,-4.278 -1.379,-8.7 -1.379,-8.7 C 19.644,-46.162 9.204,-52.397 0,-52.397 c -14.209,0 -24.94,10.728 -24.94,25.665 C -24.94,-11.729 -13.994,-1 0,-1" /></g><g
           transform="translate(292.8682,17.1777)"
           id="g68"><path
             id="path70"
             style="fill:#44535b;fill-opacity:1;fill-rule:nonzero;stroke:none"
             d="m 0,0 c -8.386,0 -17.813,4.959 -18.767,14.149 l -0.105,1.921 8.391,0.161 0.084,-1.251 0.018,10e-4 c 0.454,-4.213 5.67,-6.731 10.45,-6.731 5.348,0 10.879,2.903 10.879,7.762 0,0.474 -0.069,1.023 -0.205,1.631 -0.758,3.351 -5.305,4.074 -10.724,4.618 -6.116,0.615 -17.487,1.758 -18.42,13.503 h -0.006 c -0.315,3.697 0.672,7.151 2.854,9.989 3.299,4.278 9.34,6.935 15.766,6.935 7.295,0 16.32,-3.606 17.75,-13.769 l 0.077,-0.547 -8.219,-0.33 -0.091,0.408 c -0.93,4.188 -5.507,6.062 -9.63,6.062 l -0.24,-0.002 c -3.809,-0.078 -7.107,-1.443 -8.82,-3.648 -0.883,-1.132 -1.273,-2.64 -1.133,-4.363 0.319,-4.56 4.996,-5.355 11.079,-5.922 C 8.79,29.602 17.014,27.512 18.97,19.395 19.212,18.19 19.349,16.938 19.349,15.941 19.349,5.963 9.511,0 0,0" /></g><g
           transform="translate(293.083,70.3662)"
           id="g72"><path
             id="path74"
             style="fill:#44535b;fill-opacity:1;fill-rule:nonzero;stroke:none"
             d="m 0,0 c -6.577,0 -12.771,-2.731 -16.161,-7.13 -2.261,-2.939 -3.283,-6.514 -2.957,-10.338 h 0.006 c 0.967,-12.156 12.608,-13.328 18.869,-13.958 5.222,-0.523 9.601,-1.204 10.286,-4.231 0.128,-0.571 0.192,-1.082 0.192,-1.52 0,-4.485 -5.387,-7.261 -10.379,-7.261 -4.559,0 -9.529,2.35 -9.953,6.285 l -0.018,-0.001 -0.05,0.755 -0.064,0.952 -0.954,-0.019 -7.396,-0.142 -1.035,-0.021 0.056,-1.034 0.075,-1.379 c 0.988,-9.53 10.664,-14.646 19.268,-14.646 9.757,0 19.849,6.149 19.849,16.441 0,1.029 -0.141,2.316 -0.385,3.533 -2.035,8.45 -10.442,10.602 -18.398,11.597 -5.874,0.548 -10.368,1.295 -10.657,5.456 -0.092,1.125 0.012,2.724 1.027,4.027 1.911,2.459 5.611,3.397 8.438,3.455 l 0.226,0.002 c 3.926,0 8.274,-1.753 9.144,-5.67 l 0.182,-0.815 0.835,0.033 7.249,0.291 1.104,0.044 -0.154,1.095 C 16.771,-3.719 7.495,0 0,0 m 0,-1 c 7.829,0 15.949,-4.06 17.255,-13.339 l -7.249,-0.291 c -0.997,4.484 -5.762,6.453 -10.119,6.453 -0.083,0 -0.165,-0.001 -0.248,-0.002 -3.409,-0.07 -7.179,-1.23 -9.207,-3.841 -1.015,-1.302 -1.378,-2.971 -1.236,-4.71 0.364,-5.22 6.092,-5.873 11.531,-6.379 6.958,-0.87 15.586,-2.683 17.542,-10.802 0.218,-1.088 0.365,-2.32 0.365,-3.336 0,-9.788 -9.716,-15.441 -18.849,-15.441 -7.83,0 -17.329,4.639 -18.269,13.701 l -0.076,1.379 7.397,0.142 0.072,-1.085 v 0.29 c 0.508,-4.715 6.237,-7.177 10.947,-7.177 5.438,0 11.379,3.042 11.379,8.261 0,0.509 -0.071,1.089 -0.216,1.74 -0.871,3.846 -6.09,4.498 -11.163,5.006 -7.901,0.795 -17.18,2.535 -17.978,13.12 v -0.072 c -0.29,3.405 0.578,6.815 2.753,9.643 C -11.961,-3.32 -5.873,-1 0,-1" /></g></g></g><g
       id="g76"><g
         clip-path="url(#clipPath82)"
         id="g78"><g
           id="g84"><g
             id="g86"><path
               id="path100"
               style="fill:url(#linearGradient98);stroke:none"
               d="m 326.119,176.388 -0.002,-0.002 V 34.99 v 0 l 25.788,25.787 v 89.821 h 89.819 l 25.791,25.789 -10e-4,0.001 z" /></g></g></g></g><g
       id="g102"><g
         clip-path="url(#clipPath108)"
         id="g104"><g
           id="g110"><g
             id="g112"><path
               id="path124"
               style="fill:url(#linearGradient122);stroke:none"
               d="M 463.213,129.109 V 39.29 H 373.395 L 347.61,13.501 H 489 v 141.397 0 z" /></g></g></g></g><g
       id="g126"><g
         clip-path="url(#clipPath132)"
         id="g128"><g
           transform="translate(400.3604,61.9141)"
           id="g134"><path
             id="path136"
             style="fill:#44535b;fill-opacity:1;fill-rule:nonzero;stroke:none"
             d="m 0,0 v 52.286 c 0,2.674 -0.782,4.943 -2.35,6.796 -1.564,1.857 -3.453,2.784 -5.653,2.784 -1.537,0 -2.935,-0.47 -4.189,-1.414 -1.262,-0.945 -2.249,-2.174 -2.966,-3.695 V 0 h -10.694 v 66.065 h 10.694 v -7.394 c 1.281,2.253 2.948,4.046 5.002,5.386 2.05,1.337 4.281,2.008 6.692,2.008 3.898,0 7.234,-1.643 10.006,-4.927 2.767,-3.285 4.151,-7.241 4.151,-11.863 L 10.693,0 Z" /></g><g
           transform="translate(433.1348,126.793)"
           id="g138"><path
             id="path140"
             style="fill:#44535b;fill-opacity:1;fill-rule:nonzero;stroke:none"
             d="M 0,0 V -64.879 H -10.772 V 0 h -8.077 V 1.186 H 8.076 V 0 Z" /></g><path
           id="path142"
           style="fill:#44535b;fill-opacity:1;fill-rule:nonzero;stroke:none"
           d="M 43.958,137.386 H 32.233 v 9.915 H 43.958 Z M 23.181,79.535 c -5.346,0.431 -9.569,2.414 -9.569,2.414 l -1.897,9.571 c 0,0 4.914,-1.984 9.915,-1.984 4.138,0 10.604,2.586 10.69,10.777 v 29.658 h 11.725 v -16.294 c 0.172,-4.828 3.191,-7.932 8.278,-7.932 h 5.861 V 94.278 h -5.173 c -3.966,0 -6.983,1.121 -9.137,2.672 C 42.58,84.881 32.838,78.76 23.181,79.535" /><path
           id="path144"
           style="fill:#44535b;fill-opacity:1;fill-rule:nonzero;stroke:none"
           d="M 96.457,144.197 H 84.732 v 10 h 11.725 z m -23.882,-20.26 c 0,-3.191 2.415,-5.519 5.689,-5.519 6.38,0 6.64,7.07 6.64,11.639 -4.052,0.087 -12.329,0.173 -12.329,-6.12 m 6.81,20.26 H 67.66 v 10 h 11.725 z m 5.432,-28.968 c -2.672,-3.19 -6.208,-4.57 -10.691,-4.57 -5.949,0 -12.931,4.225 -12.674,11.812 0.518,15.432 16.21,14.139 35.091,14.139 l -0.086,-25.002 c 0,-4.916 -1.121,-17.33 -15.605,-17.33 H 57.746 v 11.467 h 22.157 c 3.017,0 4.914,1.811 4.914,5.173 v 4.224 z" /><g
           transform="translate(124.4707,94.2783)"
           id="g146"><path
             id="path148"
             style="fill:#44535b;fill-opacity:1;fill-rule:nonzero;stroke:none"
             d="M 0,0 C -14.484,0 -15.519,12.414 -15.519,17.33 V 55.868 H -3.965 V 16.64 c 0,-3.363 1.897,-5.174 4.915,-5.174 H 8.362 V 0 Z" /></g><path
           id="path150"
           style="fill:#44535b;fill-opacity:1;fill-rule:nonzero;stroke:none"
           d="m 147.743,94.278 h -15.692 v 11.466 h 15.692 z" /><path
           id="path152"
           style="fill:#44535b;fill-opacity:1;fill-rule:nonzero;stroke:none"
           d="m 174.122,140.145 h -11.725 v 10.001 h 11.725 z M 147.31,94.278 v 11.467 h 10.172 c 3.103,0 5.001,1.811 5.001,5.173 v 21.726 h 11.639 v -21.036 c 0,-4.916 -1.122,-17.33 -15.606,-17.33 z m 9.741,45.867 h -11.726 v 10.001 h 11.726 z" /><g
           transform="translate(205.9541,98.6748)"
           id="g154"><path
             id="path156"
             style="fill:#44535b;fill-opacity:1;fill-rule:nonzero;stroke:none"
             d="m 0,0 v 29.745 h -10.174 c -8.88,0 -13.968,-8.19 -13.968,-14.743 C -24.142,7.587 -19.054,0 -10.174,0 Z m 4.654,-4.396 v -0.087 c 0,-10 -6.982,-15.259 -15.776,-14.743 -3.535,0.259 -7.586,1.726 -8.536,2.329 0,0 -0.258,2.155 -0.516,4.31 3.534,-1.984 6.379,-2.155 8.534,-2.242 6.984,-0.259 11.554,3.793 11.64,10.433 h -10.174 c -11.035,0 -19.14,8.276 -19.14,18.622 0,10.26 7.329,19.83 19.14,19.83 H 4.654 V 0 h 12.675 v -4.396 z" /></g><path
           id="path158"
           style="fill:#44535b;fill-opacity:1;fill-rule:nonzero;stroke:none"
           d="m 238.276,94.278 h -15.692 v 4.396 h 15.692 z" /><path
           id="path160"
           style="fill:#44535b;fill-opacity:1;fill-rule:nonzero;stroke:none"
           d="m 259.914,79.276 h -5.432 v 5.863 h 5.432 z m -11.811,0 h -5.432 v 5.863 h 5.432 z m -10.52,15.002 v 4.397 h 7.071 c 6.379,0 10.26,3.794 10.26,10.605 v 20.691 h 4.654 v -18.536 c 0.173,-7.156 3.794,-12.76 11.727,-12.76 h 3.535 v -4.397 h -2.76 c -6.638,0 -11.897,4.311 -13.622,8.536 -1.466,-4.312 -4.828,-8.536 -12.587,-8.536 z" /><path
           id="path162"
           style="fill:#44535b;fill-opacity:1;fill-rule:nonzero;stroke:none"
           d="m 289.738,94.278 h -15.691 v 4.396 h 15.691 z" /><path
           id="path164"
           style="fill:#44535b;fill-opacity:1;fill-rule:nonzero;stroke:none"
           d="m 302.495,144.456 h -5.431 v 5.777 h 5.431 z M 289.392,94.278 v 4.397 h 7.414 c 6.381,0 10.259,3.794 10.259,10.605 v 23.45 h 4.657 v -22.76 c 0,-4.484 -1.035,-15.692 -13.71,-15.692 z" /></g></g></g></svg>